<?xml version="1.0" encoding="utf-8"?>
<!DOCTYPE svg PUBLIC "-//W3C//DTD SVG 1.1//EN" "http://www.w3.org/Graphics/SVG/1.1/DTD/svg11.dtd">
<svg version="1.1" xmlns="http://www.w3.org/2000/svg" xmlns:xlink="http://www.w3.org/1999/xlink" width="512" height="512" viewBox="0 0 512 512">
    <path d="M512 412.014q0 17.239-12.067 29.305l-58.613 58.613q-12.067 12.067-29.305 12.067t-29.305-12.067l-126.709-126.709-126.709 126.709q-12.067 12.067-29.305 12.067t-29.305-12.067l-58.614-58.613q-12.067-12.067-12.067-29.305t12.067-29.305l126.709-126.709-126.709-126.709q-12.067-12.068-12.067-29.305t12.067-29.305l58.614-58.614q12.067-12.067 29.305-12.067t29.305 12.067l126.709 126.709 126.709-126.709q12.067-12.067 29.305-12.067t29.305 12.067l58.613 58.614q12.067 12.068 12.067 29.305t-12.067 29.305l-126.709 126.709 126.709 126.709q12.067 12.067 12.067 29.305z"></path>
</svg>
