<?xml version="1.0" encoding="utf-8"?>
<!DOCTYPE svg PUBLIC "-//W3C//DTD SVG 1.1//EN" "http://www.w3.org/Graphics/SVG/1.1/DTD/svg11.dtd">
<svg version="1.1" xmlns="http://www.w3.org/2000/svg" xmlns:xlink="http://www.w3.org/1999/xlink" width="512" height="512" viewBox="0 0 512 512">
    <path d="M191.998 202.667v192.001q0 4.666-3 7.666t-7.667 3h-21.334q-4.667 0-7.667-3t-3-7.666v-192q0-4.667 3-7.667t7.667-3h21.334q4.667 0 7.667 3t3 7.667zM277.333 202.667v192.001q0 4.666-3 7.666t-7.666 3h-21.334q-4.667 0-7.667-3t-3-7.666v-192q0-4.667 3-7.667t7.667-3h21.334q4.666 0 7.666 3t3 7.667zM362.666 202.667v192.001q0 4.666-3 7.666t-7.666 3h-21.334q-4.666 0-7.666-3t-3-7.666v-192q0-4.667 3-7.667t7.666-3h21.334q4.666 0 7.666 3t3 7.667zM405.332 444v-316h-298.666v316q0 7.333 2.334 13.5t4.833 9 3.501 2.834h277.333q1 0 3.5-2.834t4.833-9 2.334-13.5zM181.333 85.335h149.333l-16-39.001q-2.334-3-5.666-3.666h-105.667q-3.333 0.667-5.666 3.666zM490.665 96.001v21.333q0 4.666-3 7.666t-7.666 3h-32v316q0 27.666-15.666 47.834t-37.666 20.166h-277.333q-21.999 0-37.666-19.501t-15.666-47.166v-317.332h-31.999q-4.666 0-7.666-3t-3-7.666v-21.334q0-4.666 3-7.666t7.666-3h102.999l23.333-55.667q5-12.333 17.999-21t26.334-8.666h106.667q13.334 0 26.334 8.666t18 21l23.332 55.667h102.999q4.666 0 7.666 3t3 7.666z"></path>
</svg>
