<?xml version="1.0" encoding="utf-8"?>
<!DOCTYPE svg PUBLIC "-//W3C//DTD SVG 1.1//EN" "http://www.w3.org/Graphics/SVG/1.1/DTD/svg11.dtd">
<svg version="1.1" xmlns="http://www.w3.org/2000/svg" xmlns:xlink="http://www.w3.org/1999/xlink" width="512" height="512" viewBox="0 0 512 512">
    <path d="M341.332 256q0-35.333-25-60.334t-60.334-25-60.334 25-25 60.334 25 60.334 60.334 25 60.334-25 25-60.334zM511.998 219.667v74q0 4-2.666 7.666t-6.667 4.334l-61.666 9.334q-6.333 18-13 30.334 11.666 16.666 35.666 46 3.333 4 3.333 8.334t-3 7.666q-9 12.334-33 36t-31.333 23.666q-4 0-8.666-3l-46-36q-14.666 7.666-30.334 12.666-5.334 45.333-9.666 62-2.334 9.333-12 9.333h-74q-4.667 0-8.166-2.833t-3.833-7.167l-9.333-61.334q-16.334-5.334-30-12.334l-46.999 35.666q-3.333 3-8.334 3-4.666 0-8.334-3.667-42-38-55-56-2.334-3.333-2.334-7.666 0-4 2.666-7.666 4.999-7 17-22.166t18-23.5q-9-16.666-13.667-33l-60.999-9q-4.333-0.666-7-4.166t-2.667-7.834v-74q0-4 2.667-7.667t6.333-4.333l62-9.334q4.666-15.334 13-30.666-13.333-19-35.666-46-3.333-4-3.333-8 0-3.333 3-7.666 8.666-11.999 32.834-35.834t31.5-23.833q4.334 0 8.666 3.333l46 35.666q14.666-7.666 30.334-12.666 5.333-45.333 9.666-62 2.333-9.334 12-9.334h74q4.666 0 8.166 2.833t3.833 7.167l9.334 61.334q16.334 5.334 30 12.334l47.334-35.666q3-3 8-3 4.334 0 8.334 3.333 43 39.666 55 56.666 2.334 2.666 2.334 7.333 0 4-2.666 7.666-5 7-17 22.166t-18 23.5q8.666 16.666 13.667 32.666l61 9.334q4.334 0.667 7 4.167t2.666 7.833z"></path>
</svg>
