<?xml version="1.0" encoding="utf-8"?>
<!DOCTYPE svg PUBLIC "-//W3C//DTD SVG 1.1//EN" "http://www.w3.org/Graphics/SVG/1.1/DTD/svg11.dtd">
<svg version="1.1" xmlns="http://www.w3.org/2000/svg" xmlns:xlink="http://www.w3.org/1999/xlink" width="512" height="512" viewBox="0 0 512 512">
    <path d="M512 405.334v42.667q0 8.666-6.334 15t-15 6.334h-469.334q-8.666 0-15-6.334t-6.333-15v-42.667q0-8.666 6.333-15t15-6.334h469.334q8.666 0 15 6.334t6.334 15zM512 234.667v42.667q0 8.666-6.334 15t-15 6.334h-469.334q-8.666 0-15-6.334t-6.333-15v-42.667q0-8.667 6.333-15t15-6.333h469.334q8.666 0 15 6.333t6.334 15zM512 63.999v42.667q0 8.666-6.334 15t-15 6.334h-469.334q-8.666 0-15-6.334t-6.333-15v-42.667q0-8.666 6.333-15t15-6.334h469.334q8.666 0 15 6.334t6.334 15z"></path>
</svg>
