<?xml version="1.0" encoding="utf-8"?>
<!DOCTYPE svg PUBLIC "-//W3C//DTD SVG 1.1//EN" "http://www.w3.org/Graphics/SVG/1.1/DTD/svg11.dtd">
<svg version="1.1" xmlns="http://www.w3.org/2000/svg" xmlns:xlink="http://www.w3.org/1999/xlink" width="512" height="512" viewBox="0 0 512 512">
    <path d="M438.721 286.928v152.268q0 8.248-6.027 14.274t-14.274 6.027h-121.814v-121.814h-81.21v121.814h-121.814q-8.248 0-14.275-6.027t-6.026-14.274v-152.268q0-0.317 0.159-0.952t0.159-0.952l182.404-150.364 182.403 150.364q0.317 0.634 0.317 1.904zM509.463 265.041l-19.668 23.474q-2.537 2.854-6.662 3.49h-0.952q-4.124 0-6.662-2.221l-219.519-183.038-219.519 183.038q-3.806 2.537-7.613 2.221-4.124-0.634-6.662-3.49l-19.668-23.474q-2.538-3.172-2.221-7.454t3.49-6.82l228.085-190.017q10.151-8.248 24.11-8.248t24.108 8.248l77.403 64.713v-61.859q0-4.441 2.854-7.296t7.296-2.855h60.907q4.442 0 7.296 2.855t2.854 7.296v129.428l69.471 57.735q3.172 2.538 3.49 6.822t-2.221 7.454z"></path>
</svg>
