<?xml version="1.0" encoding="utf-8"?>
<!DOCTYPE svg PUBLIC "-//W3C//DTD SVG 1.1//EN" "http://www.w3.org/Graphics/SVG/1.1/DTD/svg11.dtd">
<svg version="1.1" xmlns="http://www.w3.org/2000/svg" xmlns:xlink="http://www.w3.org/1999/xlink" width="512" height="512" viewBox="0 0 512 512">
    <path d="M390.574 275.429l-146.286 146.286q-2.857 2.572-6.572 2.572t-6.572-2.572l-82.286-82.286q-2.572-2.857-2.572-6.572t2.572-6.286l13.143-13.143q2.571-2.572 6.286-2.572t6.571 2.572l62.857 62.857 126.857-126.858q2.857-2.571 6.572-2.571t6.286 2.571l13.143 13.143q2.572 2.572 2.572 6.286t-2.572 6.572zM54.858 475.43h402.288v-292.573h-402.288v292.573zM164.572 127.999v-82.285q0-4-2.571-6.572t-6.571-2.572h-18.285q-4 0-6.572 2.572t-2.572 6.572v82.285q0 4 2.572 6.571t6.572 2.571h18.285q4 0 6.572-2.571t2.571-6.572zM384.002 127.999v-82.285q0-4-2.572-6.572t-6.572-2.572h-18.286q-4 0-6.572 2.572t-2.572 6.572v82.285q0 4 2.572 6.571t6.572 2.571h18.286q4 0 6.572-2.571t2.572-6.572zM493.716 109.713v365.716q0 14.857-10.857 25.714t-25.714 10.857h-402.288q-14.857 0-25.715-10.857t-10.857-25.714v-365.716q0-14.857 10.857-25.715t25.715-10.857h36.572v-27.428q0-18.857 13.428-32.285t32.285-13.428h18.285q18.857 0 32.285 13.428t13.428 32.285v27.428h109.715v-27.428q0-18.857 13.428-32.285t32.286-13.428h18.286q18.857 0 32.286 13.428t13.428 32.285v27.428h36.572q14.857 0 25.714 10.857t10.857 25.715z"></path>
</svg>
