<?xml version="1.0" encoding="utf-8"?>
<!DOCTYPE svg PUBLIC "-//W3C//DTD SVG 1.1//EN" "http://www.w3.org/Graphics/SVG/1.1/DTD/svg11.dtd">
<svg version="1.1" xmlns="http://www.w3.org/2000/svg" xmlns:xlink="http://www.w3.org/1999/xlink" width="512" height="512" viewBox="0 0 512 512">
    <path d="M512 221.092v69.817q0 14.546-10.183 24.727t-24.727 10.183h-151.272v151.272q0 14.546-10.183 24.727t-24.727 10.183h-69.817q-14.546 0-24.727-10.183t-10.183-24.727v-151.272h-151.272q-14.544 0-24.727-10.183t-10.182-24.727v-69.818q0-14.546 10.182-24.727t24.727-10.183h151.272v-151.272q0-14.544 10.183-24.727t24.727-10.182h69.818q14.546 0 24.727 10.182t10.181 24.727v151.272h151.272q14.546 0 24.727 10.183t10.183 24.727z"></path>
</svg>
