<?xml version="1.0" encoding="utf-8"?>
<!DOCTYPE svg PUBLIC "-//W3C//DTD SVG 1.1//EN" "http://www.w3.org/Graphics/SVG/1.1/DTD/svg11.dtd">
<svg version="1.1" xmlns="http://www.w3.org/2000/svg" xmlns:xlink="http://www.w3.org/1999/xlink" width="512" height="512" viewBox="0 0 512 512">
    <path d="M354.461 216.616q0-56.923-40.462-97.383t-97.383-40.462-97.383 40.462-40.462 97.383 40.462 97.383 97.383 40.462 97.383-40.462 40.462-97.383zM511.998 472.615q0 16-11.692 27.692t-27.692 11.692q-16.615 0-27.692-11.692l-105.538-105.23q-55.077 38.153-122.769 38.153-44 0-84.154-17.077t-69.23-46.154-46.154-69.231-17.076-84.154 17.076-84.154 46.154-69.23 69.23-46.154 84.154-17.076 84.154 17.076 69.231 46.154 46.154 69.23 17.077 84.154q0 67.692-38.153 122.769l105.538 105.538q11.385 11.385 11.385 27.692z"></path>
</svg>
