<?xml version="1.0" encoding="utf-8"?>
<!DOCTYPE svg PUBLIC "-//W3C//DTD SVG 1.1//EN" "http://www.w3.org/Graphics/SVG/1.1/DTD/svg11.dtd">
<svg version="1.1" xmlns="http://www.w3.org/2000/svg" xmlns:xlink="http://www.w3.org/1999/xlink" width="512" height="512" viewBox="0 0 512 512">
    <path d="M292.572 420.574h182.86v-36.572h-182.86v36.572zM182.856 274.286h292.576v-36.572h-292.576v36.572zM365.716 127.999h109.716v-36.572h-109.716v36.572zM512.004 365.716v73.144q0 7.428-5.428 12.857t-12.857 5.428h-475.435q-7.428 0-12.857-5.428t-5.428-12.857v-73.144q0-7.428 5.428-12.857t12.857-5.428h475.435q7.428 0 12.857 5.428t5.428 12.857zM512.004 219.429v73.144q0 7.428-5.428 12.857t-12.857 5.428h-475.435q-7.428 0-12.857-5.428t-5.428-12.857v-73.144q0-7.428 5.428-12.857t12.857-5.429h475.435q7.428 0 12.857 5.428t5.428 12.857zM512.004 73.141v73.144q0 7.429-5.428 12.857t-12.857 5.428h-475.435q-7.428 0-12.857-5.428t-5.428-12.857v-73.144q0-7.428 5.428-12.857t12.857-5.428h475.435q7.428 0 12.857 5.428t5.428 12.857z"></path>
</svg>
